<svg id="visual" viewBox="0 0 540 480" width="540" height="480" xmlns="http://www.w3.org/2000/svg" xmlns:xlink="http://www.w3.org/1999/xlink" version="1.1"><rect x="0" y="0" width="540" height="480" fill="#F8FAFC"></rect><path d="M0 317L77 334L154 294L231 313L309 316L386 288L463 321L540 298L540 481L463 481L386 481L309 481L231 481L154 481L77 481L0 481Z" fill="#00a6f4"></path><path d="M0 361L77 376L154 317L231 363L309 371L386 339L463 337L540 365L540 481L463 481L386 481L309 481L231 481L154 481L77 481L0 481Z" fill="#0092f8"></path><path d="M0 359L77 399L154 373L231 351L309 384L386 397L463 392L540 398L540 481L463 481L386 481L309 481L231 481L154 481L77 481L0 481Z" fill="#007cf6"></path><path d="M0 404L77 391L154 405L231 409L309 434L386 418L463 416L540 405L540 481L463 481L386 481L309 481L231 481L154 481L77 481L0 481Z" fill="#0063f0"></path><path d="M0 455L77 436L154 448L231 428L309 440L386 450L463 439L540 429L540 481L463 481L386 481L309 481L231 481L154 481L77 481L0 481Z" fill="#1447e6"></path></svg>