<svg id="visual" viewBox="0 0 960 270" width="960" height="270" xmlns="http://www.w3.org/2000/svg" xmlns:xlink="http://www.w3.org/1999/xlink" version="1.1"><rect x="0" y="0" width="960" height="270" fill="#F8FAFC"></rect><path d="M0 178L137 187L274 165L411 176L549 177L686 161L823 180L960 167L960 271L823 271L686 271L549 271L411 271L274 271L137 271L0 271Z" fill="#00a6f4"></path><path d="M0 203L137 211L274 178L411 204L549 208L686 190L823 189L960 205L960 271L823 271L686 271L549 271L411 271L274 271L137 271L0 271Z" fill="#0092f8"></path><path d="M0 201L137 224L274 209L411 197L549 215L686 223L823 220L960 223L960 271L823 271L686 271L549 271L411 271L274 271L137 271L0 271Z" fill="#007cf6"></path><path d="M0 227L137 220L274 227L411 229L549 244L686 235L823 234L960 227L960 271L823 271L686 271L549 271L411 271L274 271L137 271L0 271Z" fill="#0063f0"></path><path d="M0 255L137 245L274 251L411 241L549 247L686 253L823 246L960 241L960 271L823 271L686 271L549 271L411 271L274 271L137 271L0 271Z" fill="#1447e6"></path></svg>