<svg id="visual" viewBox="0 0 960 270" width="960" height="270" xmlns="http://www.w3.org/2000/svg" xmlns:xlink="http://www.w3.org/1999/xlink" version="1.1"><rect x="0" y="0" width="960" height="270" fill="#2B7FFF"></rect><path d="M0 160L22.8 165.2C45.7 170.3 91.3 180.7 137 184.3C182.7 188 228.3 185 274 182.8C319.7 180.7 365.3 179.3 411.2 175.5C457 171.7 503 165.3 548.8 168.7C594.7 172 640.3 185 686 185.3C731.7 185.7 777.3 173.3 823 166.7C868.7 160 914.3 159 937.2 158.5L960 158L960 271L937.2 271C914.3 271 868.7 271 823 271C777.3 271 731.7 271 686 271C640.3 271 594.7 271 548.8 271C503 271 457 271 411.2 271C365.3 271 319.7 271 274 271C228.3 271 182.7 271 137 271C91.3 271 45.7 271 22.8 271L0 271Z" fill="#00a6f4"></path><path d="M0 203L22.8 200.7C45.7 198.3 91.3 193.7 137 195C182.7 196.3 228.3 203.7 274 203.8C319.7 204 365.3 197 411.2 192C457 187 503 184 548.8 184C594.7 184 640.3 187 686 189.7C731.7 192.3 777.3 194.7 823 194.8C868.7 195 914.3 193 937.2 192L960 191L960 271L937.2 271C914.3 271 868.7 271 823 271C777.3 271 731.7 271 686 271C640.3 271 594.7 271 548.8 271C503 271 457 271 411.2 271C365.3 271 319.7 271 274 271C228.3 271 182.7 271 137 271C91.3 271 45.7 271 22.8 271L0 271Z" fill="#6ebbf6"></path><path d="M0 225L22.8 221.5C45.7 218 91.3 211 137 207.8C182.7 204.7 228.3 205.3 274 209.7C319.7 214 365.3 222 411.2 223.8C457 225.7 503 221.3 548.8 217.3C594.7 213.3 640.3 209.7 686 209.8C731.7 210 777.3 214 823 214.2C868.7 214.3 914.3 210.7 937.2 208.8L960 207L960 271L937.2 271C914.3 271 868.7 271 823 271C777.3 271 731.7 271 686 271C640.3 271 594.7 271 548.8 271C503 271 457 271 411.2 271C365.3 271 319.7 271 274 271C228.3 271 182.7 271 137 271C91.3 271 45.7 271 22.8 271L0 271Z" fill="#a2d0f8"></path><path d="M0 231L22.8 228.7C45.7 226.3 91.3 221.7 137 219.2C182.7 216.7 228.3 216.3 274 219.2C319.7 222 365.3 228 411.2 229C457 230 503 226 548.8 225.5C594.7 225 640.3 228 686 229C731.7 230 777.3 229 823 227.3C868.7 225.7 914.3 223.3 937.2 222.2L960 221L960 271L937.2 271C914.3 271 868.7 271 823 271C777.3 271 731.7 271 686 271C640.3 271 594.7 271 548.8 271C503 271 457 271 411.2 271C365.3 271 319.7 271 274 271C228.3 271 182.7 271 137 271C91.3 271 45.7 271 22.8 271L0 271Z" fill="#cee5fa"></path><path d="M0 257L22.8 255.7C45.7 254.3 91.3 251.7 137 250.3C182.7 249 228.3 249 274 250.2C319.7 251.3 365.3 253.7 411.2 251.7C457 249.7 503 243.3 548.8 242.5C594.7 241.7 640.3 246.3 686 246.5C731.7 246.7 777.3 242.3 823 242.2C868.7 242 914.3 246 937.2 248L960 250L960 271L937.2 271C914.3 271 868.7 271 823 271C777.3 271 731.7 271 686 271C640.3 271 594.7 271 548.8 271C503 271 457 271 411.2 271C365.3 271 319.7 271 274 271C228.3 271 182.7 271 137 271C91.3 271 45.7 271 22.8 271L0 271Z" fill="#f8fafc"></path></svg>