<svg id="visual" viewBox="0 0 540 480" width="540" height="480" xmlns="http://www.w3.org/2000/svg" xmlns:xlink="http://www.w3.org/1999/xlink" version="1.1"><rect x="0" y="0" width="540" height="480" fill="#2B7FFF"></rect><path d="M0 284L12.8 293.5C25.7 303 51.3 322 77 328.7C102.7 335.3 128.3 329.7 154 325.7C179.7 321.7 205.3 319.3 231.2 312.7C257 306 283 295 308.8 300.8C334.7 306.7 360.3 329.3 386 329.8C411.7 330.3 437.3 308.7 463 297.2C488.7 285.7 514.3 284.3 527.2 283.7L540 283L540 481L527.2 481C514.3 481 488.7 481 463 481C437.3 481 411.7 481 386 481C360.3 481 334.7 481 308.8 481C283 481 257 481 231.2 481C205.3 481 179.7 481 154 481C128.3 481 102.7 481 77 481C51.3 481 25.7 481 12.8 481L0 481Z" fill="#00a6f4"></path><path d="M0 361L12.8 357C25.7 353 51.3 345 77 347.3C102.7 349.7 128.3 362.3 154 362.5C179.7 362.7 205.3 350.3 231.2 341.7C257 333 283 328 308.8 328C334.7 328 360.3 333 386 337.7C411.7 342.3 437.3 346.7 463 347.2C488.7 347.7 514.3 344.3 527.2 342.7L540 341L540 481L527.2 481C514.3 481 488.7 481 463 481C437.3 481 411.7 481 386 481C360.3 481 334.7 481 308.8 481C283 481 257 481 231.2 481C205.3 481 179.7 481 154 481C128.3 481 102.7 481 77 481C51.3 481 25.7 481 12.8 481L0 481Z" fill="#6ebbf6"></path><path d="M0 401L12.8 394.8C25.7 388.7 51.3 376.3 77 370.5C102.7 364.7 128.3 365.3 154 372.8C179.7 380.3 205.3 394.7 231.2 398.2C257 401.7 283 394.3 308.8 387.2C334.7 380 360.3 373 386 373.3C411.7 373.7 437.3 381.3 463 381.7C488.7 382 514.3 375 527.2 371.5L540 368L540 481L527.2 481C514.3 481 488.7 481 463 481C437.3 481 411.7 481 386 481C360.3 481 334.7 481 308.8 481C283 481 257 481 231.2 481C205.3 481 179.7 481 154 481C128.3 481 102.7 481 77 481C51.3 481 25.7 481 12.8 481L0 481Z" fill="#a2d0f8"></path><path d="M0 411L12.8 407C25.7 403 51.3 395 77 390.7C102.7 386.3 128.3 385.7 154 390.8C179.7 396 205.3 407 231.2 408.7C257 410.3 283 402.7 308.8 401.5C334.7 400.3 360.3 405.7 386 407.7C411.7 409.7 437.3 408.3 463 405.5C488.7 402.7 514.3 398.3 527.2 396.2L540 394L540 481L527.2 481C514.3 481 488.7 481 463 481C437.3 481 411.7 481 386 481C360.3 481 334.7 481 308.8 481C283 481 257 481 231.2 481C205.3 481 179.7 481 154 481C128.3 481 102.7 481 77 481C51.3 481 25.7 481 12.8 481L0 481Z" fill="#cee5fa"></path><path d="M0 458L12.8 455.5C25.7 453 51.3 448 77 445.7C102.7 443.3 128.3 443.7 154 445.8C179.7 448 205.3 452 231.2 448.3C257 444.7 283 433.3 308.8 431.7C334.7 430 360.3 438 386 438.3C411.7 438.7 437.3 431.3 463 431.2C488.7 431 514.3 438 527.2 441.5L540 445L540 481L527.2 481C514.3 481 488.7 481 463 481C437.3 481 411.7 481 386 481C360.3 481 334.7 481 308.8 481C283 481 257 481 231.2 481C205.3 481 179.7 481 154 481C128.3 481 102.7 481 77 481C51.3 481 25.7 481 12.8 481L0 481Z" fill="#f8fafc"></path></svg>