<?xml version="1.0" encoding="UTF-8"?>
<svg xmlns="http://www.w3.org/2000/svg" viewBox="0 0 512 512">
  <defs>
    <style>
      .cls-1 {
        fill: #fff;
      }
    </style>
  </defs>
  <g id="Layer_2" data-name="Layer 2">
    <circle cx="256" cy="256" r="256"/>
  </g>
  <g id="Layer_3" data-name="Layer 3">
    <g>
      <path class="cls-1" d="M272.29,205.21l48.95,58.57c8.29-15.55,12.44-33.62,12.44-54.23,0-23.27-5.39-43.3-16.16-60.11-10.78-16.81-25.75-29.78-44.92-38.94-19.18-9.15-41.36-13.73-66.57-13.73h-111.49v226.22h111.49c1.2,0,2.38-.02,3.56-.04v-117.74h62.69Z"/>
      <path class="cls-1" d="M358.26,205.21v102.87l-37.01-44.29c-1.16,2.17-2.39,4.29-3.71,6.36-10.78,16.92-25.75,29.95-44.92,39.1-18.27,8.73-39.27,13.28-63.01,13.69v108.48h74.33v-102.87l85.96,102.87h62.7v-226.22h-74.33Z"/>
    </g>
  </g>
  <g id="Layer_4" data-name="Layer 4">
    <path d="M272.87,309.26c19.17-9.15,34.15-22.19,44.92-39.1,1.32-2.07,2.56-4.19,3.71-6.36l-48.95-58.57h-62.69v117.74c23.74-.41,44.74-4.97,63.01-13.69Z"/>
  </g>
</svg>